<?xml version="1.0" encoding="UTF-8"?>
<svg width="47px" height="56px" viewBox="0 0 47 56" version="1.1" xmlns="http://www.w3.org/2000/svg" xmlns:xlink="http://www.w3.org/1999/xlink">
    <!-- Generator: Sketch 59.1 (86144) - https://sketch.com -->
    <title>Group 6</title>
    <desc>Created with Sketch.</desc>
    <g id="V1" stroke="none" stroke-width="1" fill="none" fill-rule="evenodd">
        <g id="Jobs" transform="translate(-80.000000, -36.000000)" fill-rule="nonzero">
            <g id="Group-9" transform="translate(80.000000, 36.000000)">
                <g id="Group-6">
                    <path d="M26.2686327,24.1408407 C26.2686327,24.1408407 24.4440012,2.92736825 46.7545262,-2.30926389e-14 C46.7545262,-2.30926389e-14 48.5848419,18.8374726 34.3174743,27.4319984 L26.2686327,24.1408407 Z" id="Path" fill="#A0AEC0"></path>
                    <path d="M26.9052642,24.4023143 C35.2951585,5.72968387 46.7545262,-1.42108547e-14 46.7545262,-1.42108547e-14 C24.438317,2.92736825 26.2913695,24.1408407 26.2913695,24.1408407 L26.9052642,24.4023143 Z" id="Path" fill="#718096"></path>
                    <path d="M20.5616856,24.1408407 C20.5616856,24.1408407 22.3920013,2.92736825 0.0757921295,-2.30926389e-14 C0.0757921295,-2.30926389e-14 -1.74883934,18.8374726 12.5071598,27.4319984 L20.5616856,24.1408407 Z" id="Path" fill="#A0AEC0"></path>
                    <path d="M19.9250541,24.4023143 C11.5408441,5.72968387 0.0757921295,-1.42108547e-14 0.0757921295,-1.42108547e-14 C22.3920013,2.92736825 20.5389488,24.1408407 20.5389488,24.1408407 L19.9250541,24.4023143 Z" id="Path" fill="#718096"></path>
                    <path d="M23.3903007,20.7307013 C28.8955048,20.7559864 40.1660626,22.0477753 37.9155793,32.3999981 C36.6678113,38.4415376 36.580353,44.6608418 37.653109,50.7271553 L37.6853136,50.9017795 C34.7948364,46.5606472 29.2231742,43.620629 22.8296855,43.620629 C17.1016356,43.620629 12.043882,45.9804975 8.98052315,49.5935642 C9.8513855,43.8876534 9.70002097,38.0655069 8.52821268,32.3999981 C6.2545286,21.9410513 17.7821069,20.7303146 23.221896,20.7303146 Z" id="Combined-Shape" fill="#718096"></path>
                    <g id="Group-3" transform="translate(15.172841, 49.947155)" fill="#1A202C">
                        <path d="M11.2208446,6.01957859 C11.2208446,6.01957859 10.6524236,2.5313085e-14 13.5797918,2.5313085e-14 C16.5071601,2.5313085e-14 15.3646338,6.01957859 15.3646338,6.01957859 L11.2208446,6.01957859 Z" id="Path"></path>
                        <path d="M4.36000292,6.01957859 C4.36000292,6.01957859 4.92842394,2.5313085e-14 2.0010557,2.5313085e-14 C-0.926312551,2.5313085e-14 0.221897907,6.01957859 0.221897907,6.01957859 L4.36000292,6.01957859 Z" id="Path"></path>
                    </g>
                    <path d="M33.0498954,27.8071562 C25.467159,29.586314 23.221896,30.0524193 23.221896,30.0524193 C23.221896,30.0524193 20.9482119,29.586314 13.3938966,27.8071562 C5.83958126,26.0279984 0.757897352,27.3353668 0.10421318,28.3755773 L0.10421318,31.8315771 C0.10421318,31.5757876 1.24105522,32.6216823 1.2865289,32.6785244 C2.20737095,34.4519979 2.46316041,36.0890505 3.09410774,37.8852609 C4.12863399,40.8126291 6.68084437,42.3018922 9.72189682,42.756629 C10.7838585,42.9050456 11.8588186,42.9374469 12.9277914,42.8532606 C15.2014754,42.6884185 17.2591595,41.8471554 18.3505279,40.4886292 C19.191791,39.4484187 20.3854751,37.6465241 22.2840013,32.9570507 L24.1597907,32.9570507 C26.0583169,37.6294714 27.252001,39.4484187 28.0875799,40.4886292 C29.1789483,41.8471554 31.2650534,42.6884185 33.5387375,42.8532606 C34.6077102,42.9374469 35.6826704,42.9050456 36.744632,42.756629 C39.7856845,42.3018922 42.3378949,40.8126291 43.3724211,37.8909451 C44.0033685,36.1061031 44.2591579,34.480419 45.18,32.6785244 C45.18,32.6216823 46.3623157,31.5814718 46.3623157,31.8315771 L46.3623157,28.369893 C45.6858947,27.341051 40.6326318,26.0279984 33.0498954,27.8071562 Z M18.543791,35.9526294 C18.2345935,37.9961491 16.9874642,39.7774621 15.1730544,40.7671555 C13.0755808,41.9039975 8.35200216,41.0684186 7.02758119,40.2555765 C3.00316038,37.7943135 3.50905508,32.5932612 4.1854761,30.7515771 C4.45402279,29.9804264 5.05515517,29.3709449 5.82252863,29.0917877 C8.03368639,28.2732615 12.0751598,28.9496825 15.0025281,29.6602088 C18.5778963,30.4901034 19.0098963,32.7694717 18.543791,35.9526294 Z M39.4162108,40.2555765 C38.0861057,41.0741028 33.3682112,41.8869449 31.2650534,40.7728397 C29.4498025,39.7813028 28.2026917,37.9979134 27.8943168,35.9526294 C27.4282116,32.7694717 27.8602115,30.4901034 31.4128429,29.6488403 C34.3515796,28.9553667 38.3760004,28.2732615 40.5928423,29.0804193 C41.3639384,29.3619842 41.967281,29.9757653 42.2355791,30.7515771 C42.9347369,32.5932612 43.4406317,37.7943135 39.4162108,40.2555765 Z" id="Shape" fill="#1A202C"></path>
                </g>
            </g>
        </g>
    </g>
</svg>