<svg id="Layer_1" data-name="Layer 1" xmlns="http://www.w3.org/2000/svg" viewBox="0 0 320.51 183.73"><path d="M0,92.8a49,49,0,0,0,49,49H112.5a1.8,1.8,0,0,1,1.8,1.79v13.21h36.39V143.58a38.23,38.23,0,0,0-38.19-38.19H49A12.6,12.6,0,0,1,36.4,92.8V36.4H219.77a1.8,1.8,0,0,1,1.8,1.79V84.06H258V38.19A38.23,38.23,0,0,0,219.77,0H0Z" style="fill:#2a4365"/><polygon points="135.88 64.28 128.98 43.66 122.08 64.28 100.6 64.28 117.82 77.14 111.44 97.65 128.98 85.25 146.52 97.65 140.15 77.14 157.37 64.28 135.88 64.28" style="fill:#009aff"/><polygon points="168.21 97.65 185.75 85.25 203.29 97.65 196.91 77.14 214.13 64.28 192.65 64.28 185.75 43.66 178.85 64.28 157.37 64.28 174.59 77.14 168.21 97.65" style="fill:#009aff"/><polygon points="72.21 43.66 65.31 64.28 43.83 64.28 61.05 77.14 54.67 97.65 72.21 85.25 89.76 97.65 83.38 77.14 100.6 64.28 79.11 64.28 72.21 43.66" style="fill:#009aff"/><path d="M320.51,0,277.68,146.28l-.12.45,10.82,37H250.44l-6.57-22.53h-45.3a15.37,15.37,0,0,0-15.37,15.35v7.18H146.82v-7.18a51.79,51.79,0,0,1,51.75-51.74h47.48L282.59,0Z" style="fill:#2a4365"/></svg>